<svg width="14" height="14" viewBox="0 0 14 14" fill="none" xmlns="http://www.w3.org/2000/svg">
<path d="M10.4525 8.35339C10.3014 8.49981 10.232 8.71156 10.2664 8.91922L10.785 11.7892C10.8287 12.0325 10.726 12.2786 10.5225 12.4192C10.323 12.5651 10.0575 12.5826 9.83995 12.4659L7.25637 11.1184C7.16654 11.0706 7.06679 11.0449 6.9647 11.042H6.80662C6.75179 11.0501 6.69812 11.0676 6.64912 11.0945L4.06495 12.4484C3.9372 12.5126 3.79254 12.5353 3.65079 12.5126C3.30545 12.4472 3.07504 12.1182 3.13162 11.7711L3.65079 8.90114C3.6852 8.69172 3.61579 8.47881 3.4647 8.33006L1.35829 6.28839C1.18212 6.11747 1.12087 5.86081 1.20137 5.62922C1.27954 5.39822 1.47904 5.22964 1.71995 5.19172L4.61912 4.77114C4.83962 4.74839 5.03329 4.61422 5.13245 4.41589L6.40995 1.79672C6.44029 1.73839 6.47937 1.68472 6.52662 1.63922L6.57912 1.59839C6.60654 1.56806 6.63804 1.54297 6.67304 1.52256L6.73662 1.49922L6.83579 1.45839H7.08137C7.3007 1.48114 7.49379 1.61239 7.5947 1.80839L8.88912 4.41589C8.98245 4.60664 9.16387 4.73906 9.37329 4.77114L12.2725 5.19172C12.5175 5.22672 12.7222 5.39589 12.8033 5.62922C12.8797 5.86314 12.8138 6.11981 12.6341 6.28839L10.4525 8.35339Z" fill="#F2C94C"/>
</svg>
